<svg xmlns="http://www.w3.org/2000/svg" width="170" height="120" viewBox="0 0 170 120"><g><g><path fill="#222" d="M7.096 0h155.487c2.074 0 3.975.805 5.35 2.267C169.267 3.684 170 5.586 170 7.621v104.747c0 4.208-3.183 7.631-7.096 7.631H7.096a7.108 7.108 0 0 1-5.015-2.055C.739 116.624 0 114.884 0 113.046V7.21c0-1.946.737-3.763 2.075-5.117A7.008 7.008 0 0 1 7.095 0zm0 .538C3.475.538.539 3.468.539 7.21v105.837c0 3.486 2.936 6.415 6.557 6.415h155.808c3.621 0 6.556-3.18 6.556-7.093V7.621c0-3.848-2.828-7.083-6.877-7.083zm-4.06 2.496a5.668 5.668 0 0 1 4.06-1.692h155.487c1.698 0 3.249.655 4.367 1.843 1.097 1.166 1.7 2.74 1.7 4.432v104.747c0 3.465-2.577 6.284-5.746 6.284H7.096a5.765 5.765 0 0 1-4.068-1.667c-1.082-1.066-1.679-2.465-1.679-3.939V7.205c0-1.59.6-3.071 1.687-4.171zm4.06-1.153A5.13 5.13 0 0 0 3.42 3.412c-.987 1-1.531 2.346-1.531 3.793v105.837c0 1.329.54 2.591 1.518 3.556.991.975 2.3 1.512 3.689 1.512h155.808c2.871 0 5.207-2.578 5.207-5.746V7.617c0-1.554-.552-2.997-1.555-4.063-1.015-1.08-2.426-1.673-3.973-1.673zm8.823 5.659h138.158c.373 0 .675.301.675.673v103.435a.674.674 0 0 1-.675.673H15.92a.674.674 0 0 1-.674-.673V8.213c0-.372.302-.673.674-.673zm0 .673v103.435h138.158V8.213zM8.3 61.008a1.011 1.011 0 1 1 1.011-1.01c0 .558-.453 1.01-1.012 1.01zm0-.404a.608.608 0 0 0 .607-.606.608.608 0 0 0-1.215 0c0 .334.272.606.607.606zm.025 2.831a.543.543 0 0 1-.545-.541c0-.3.243-.542.545-.542.3 0 .544.243.544.542a.543.543 0 0 1-.544.541zm153.85-7.407a4.045 4.045 0 0 1 4.05 4.04c0 2.2-1.761 3.987-3.952 4.038l-.097.002a4.044 4.044 0 0 1-4.05-4.04 4.045 4.045 0 0 1 4.05-4.04zm0 .538a3.51 3.51 0 0 0-3.508 3.502 3.51 3.51 0 0 0 3.556 3.5h.036a3.494 3.494 0 0 0 2.425-1.053c.645-.657 1-1.526 1-2.447a3.51 3.51 0 0 0-3.508-3.502zm-.8 2.02h1.6c.378 0 .685.306.685.683v1.596a.685.685 0 0 1-.685.683h-1.6a.684.684 0 0 1-.684-.683v-1.596c0-.377.307-.684.685-.684zm0 .538a.145.145 0 0 0-.144.145v1.596c0 .08.065.145.145.145h1.599c.08 0 .145-.065.145-.145v-1.596a.145.145 0 0 0-.145-.145z"/></g></g></svg>