<svg xmlns="http://www.w3.org/2000/svg" width="72" height="151" viewBox="0 0 72 151"><g><g><path fill="#222" d="M68.015 6.163c1.347 1.56 2.12 3.678 2.12 5.812v128.172c0 2.134-.773 4.252-2.12 5.812a8.107 8.107 0 0 1-2.908 2.131c-1.288.566-2.787.852-4.453.852H12.652c-1.666 0-3.164-.286-4.453-.852a8.11 8.11 0 0 1-2.907-2.13c-1.348-1.56-2.12-3.679-2.12-5.813V11.975c0-2.134.772-4.252 2.12-5.812a8.11 8.11 0 0 1 2.907-2.131c1.289-.565 2.787-.852 4.453-.852h48.002c1.666 0 3.165.287 4.453.852a8.109 8.109 0 0 1 2.908 2.131zm1.374 5.812c0-1.956-.706-3.896-1.938-5.321a7.363 7.363 0 0 0-2.643-1.936c-1.193-.524-2.59-.79-4.154-.79H12.652c-1.563 0-2.96.266-4.154.79a7.365 7.365 0 0 0-2.642 1.936c-1.232 1.425-1.939 3.365-1.939 5.321v128.172c0 1.956.707 3.896 1.939 5.322a7.374 7.374 0 0 0 2.642 1.935c1.194.524 2.591.79 4.154.79h48.002c1.563 0 2.96-.266 4.154-.79a7.37 7.37 0 0 0 2.643-1.935c1.232-1.426 1.938-3.366 1.938-5.322zm2.611.09V140.24c0 2.6-.947 5.188-2.599 7.1-1.443 1.67-4.149 3.66-8.84 3.66H12.559c-4.691 0-7.397-1.99-8.84-3.66-1.652-1.912-2.6-4.5-2.6-7.1V57.535H.836c-.379 0-.837-.36-.837-.807v-9.662c0-.412.395-.803.812-.803h.308v-2.571H.804c-.406 0-.805-.405-.805-.819v-9.585c0-.409.42-.824.83-.824h.29v-3.111H.813c-.449 0-.814-.338-.814-.753v-6.21c0-.414.365-.752.814-.752h.306v-9.573c0-2.601.948-5.188 2.6-7.1 1.443-1.67 4.149-3.661 8.84-3.661h35.504V.907c0-.468.436-.91.897-.91h10.663c.466 0 .906.44.906.904v.403h.032c4.691 0 7.397 1.99 8.84 3.661 1.652 1.912 2.6 4.499 2.6 7.1zM48.622 1.304H59.97V.9c0-.156-.191-.342-.346-.342H48.96c-.154 0-.338.191-.338.348zM1.12 28.788v-6.586H.813c-.112 0-.203.084-.203.188v6.21c0 .104.09.188.203.188zm0 14.343V33.025H.83c-.103 0-.27.16-.27.263v9.585c0 .104.142.258.245.258zm0 13.842V46.825H.811c-.102 0-.252.138-.252.242v9.66c0 .104.174.246.277.246zm70.135-44.908c0-2.423-.88-4.832-2.417-6.61-1.341-1.552-3.866-3.402-8.276-3.402H12.56c-4.41 0-6.935 1.85-8.276 3.402-1.536 1.778-2.417 4.187-2.417 6.61V140.24c0 2.423.88 4.832 2.416 6.609 1.342 1.553 3.867 3.403 8.277 3.403H60.56c4.41 0 6.935-1.85 8.276-3.403 1.536-1.777 2.417-4.186 2.417-6.609zM34.974 8.93c0-.877.712-1.59 1.586-1.59a1.59 1.59 0 0 1 0 3.181 1.59 1.59 0 0 1-1.586-1.59zm.56 0c0 .568.46 1.03 1.026 1.03a1.029 1.029 0 0 0 0-2.059c-.566 0-1.026.462-1.026 1.03zm.466.033a.56.56 0 1 1 1.121-.002.56.56 0 0 1-1.12.002zm-5.969 5.63c0-.828.648-1.498 1.446-1.498h10.166c.798 0 1.445.67 1.445 1.497 0 .827-.647 1.497-1.445 1.497H31.477c-.798 0-1.446-.67-1.446-1.497zm.747 0c0 .399.313.724.699.724h10.166c.386 0 .7-.325.7-.725 0-.4-.314-.724-.7-.724H31.477c-.386 0-.7.325-.7.724zm12.31 125.302c0 3.617-2.922 6.55-6.528 6.55-3.606 0-6.529-2.933-6.529-6.55 0-3.618 2.923-6.55 6.529-6.55s6.528 2.932 6.528 6.55zm-.746 0c0-3.199-2.594-5.802-5.782-5.802-3.189 0-5.782 2.603-5.782 5.802 0 3.198 2.593 5.801 5.782 5.801 3.188 0 5.782-2.603 5.782-5.801zm-3.17-1.337v2.617c0 .67-.544 1.215-1.213 1.215h-2.611c-.67 0-1.213-.545-1.213-1.215v-2.617c0-.671.543-1.215 1.213-1.215h2.61c.67 0 1.213.544 1.213 1.215zm-.747 0a.467.467 0 0 0-.466-.468h-2.611a.467.467 0 0 0-.467.468v2.617c0 .257.21.467.467.467h2.61c.258 0 .467-.21.467-.467zM67.151 23.015v106.279a.747.747 0 0 1-.747.748H6.715a.747.747 0 0 1-.746-.748V23.015c0-.414.334-.749.746-.749h59.69c.411 0 .746.335.746.749zm-.746 0H6.715v106.279h59.69z"/></g></g></svg>