<svg xmlns="http://www.w3.org/2000/svg" width="228" height="131" viewBox="0 0 228 131"><g><g><path fill="#222" d="M228 124.063v3.567c0 .094 0 .34-.208.502-.08.062-.165.124-.255.186-1.572 1.078-5.511 2.68-9.93 2.68H10.393c-4.418 0-8.358-1.602-9.929-2.68a6.219 6.219 0 0 1-.2-.144c-.263-.19-.263-.483-.263-.593v-3.521c0-.196.161-.356.359-.356h21.108a6.835 6.835 0 0 1-.378-2.24V6.896C21.09 3.093 24.192 0 28.006 0h172.018c3.814 0 6.917 3.093 6.917 6.896v114.568c0 .784-.134 1.537-.378 2.24h21.075a.37.37 0 0 1 .362.36zm-206.023-.359h18.277l.024-.105.564-2.495H24.604a2.396 2.396 0 0 1-2.399-2.392V6.812c0-3.143 2.565-5.7 5.717-5.7h172.185c3.152 0 5.717 2.557 5.717 5.7v111.9a2.396 2.396 0 0 1-2.398 2.392h-16.79l.563 2.495.024.105h18.83a6.353 6.353 0 0 0 .408-2.24V6.896c0-3.539-2.887-6.418-6.437-6.418H28.006c-3.55 0-6.437 2.88-6.437 6.418v114.568c0 .788.146 1.542.408 2.24zm164.754 0l-.584-2.585H41.33l-.585 2.585zm-88.356.48c.14.77.9 2.081 2.244 2.081h26.763c1.344 0 2.103-1.311 2.244-2.082zm105.05-3.558a1.919 1.919 0 0 0 1.92-1.914V6.812c0-2.88-2.35-5.222-5.238-5.222H27.922c-2.887 0-5.237 2.342-5.237 5.222v111.9c0 1.055.86 1.914 1.919 1.914zM.48 127.58c0 .135.024.176.07.209a4.9 4.9 0 0 0 .125.092h226.651a5.24 5.24 0 0 0 .173-.128c.02-.015.022-.078.022-.124v-3.447h-97.408c-.14.99-1.091 2.56-2.73 2.56h-26.763c-1.639 0-2.59-1.57-2.73-2.56H.48zm226.065.779H1.455c1.822.991 5.198 2.16 8.937 2.16h207.216c3.739 0 7.115-1.169 8.936-2.16zM201.132 8.007V116.06a.6.6 0 0 1-.6.599H27.345a.6.6 0 0 1-.6-.6V8.009c0-.331.269-.599.6-.599h173.189c.33 0 .6.268.6.598zm-.6 0H27.345V116.06h173.189zm-87.446-3.213c0-.53.43-.957.96-.957a.958.958 0 1 1 0 1.913.958.958 0 0 1-.96-.956zm.48 0a.48.48 0 0 0 .96 0 .48.48 0 0 0-.96 0zM77.1 129.914a.31.31 0 0 1-.06-.337c.097-.223.484-.345 1.15-.363l.14-.002c.194 0 1.171.016 1.444.322a.31.31 0 0 1 .06.337c-.097.223-.483.345-1.15.363a6.532 6.532 0 0 1-.141.002c-.193 0-1.17-.016-1.443-.322zm70.792-.043a.31.31 0 0 1 .06-.337c.273-.306 1.25-.322 1.443-.322.047 0 .094 0 .142.002.665.018 1.052.14 1.15.363a.31.31 0 0 1-.061.337c-.273.306-1.25.322-1.443.322-.047 0-.095 0-.142-.002-.666-.018-1.052-.14-1.15-.363z"/></g></g></svg>