<svg xmlns="http://www.w3.org/2000/svg" width="25" height="20" viewBox="0 0 25 20"><g><g><path fill="#222" d="M24.492 2.628a9.855 9.855 0 0 1-2.828.775A4.938 4.938 0 0 0 23.83.68a9.871 9.871 0 0 1-3.127 1.194A4.916 4.916 0 0 0 17.108.32a4.923 4.923 0 0 0-4.796 6.045A13.982 13.982 0 0 1 2.163 1.22a4.898 4.898 0 0 0-.667 2.475 4.92 4.92 0 0 0 2.19 4.097 4.9 4.9 0 0 1-2.23-.615v.061a4.926 4.926 0 0 0 3.95 4.827 4.92 4.92 0 0 1-2.224.085 4.928 4.928 0 0 0 4.6 3.418 9.88 9.88 0 0 1-6.115 2.108c-.398 0-.79-.023-1.175-.07A13.935 13.935 0 0 0 8.04 19.82c9.057 0 14.01-7.501 14.01-14.007 0-.214-.005-.425-.015-.636a10.003 10.003 0 0 0 2.457-2.549z"/></g></g></svg>