<svg xmlns="http://www.w3.org/2000/svg" width="24" height="25" viewBox="0 0 24 25"><g><g><path fill="#222" d="M2.727.512c-1.653 0-2.735 1.13-2.735 2.6 0 1.435 1.047 2.599 2.667 2.599 1.721 0 2.768-1.164 2.768-2.6-.034-1.47-1.047-2.6-2.7-2.6zM5.259 24.49V7.765H.128V24.49zm3.07 0h5.131v-9.646c0-.48.034-.958.17-1.3.372-.957 1.214-1.95 2.631-1.95 1.856 0 2.6 1.472 2.6 3.627v9.27h5.131v-9.886c0-4.926-2.532-7.218-5.906-7.218-2.769 0-4.423 1.607-5.098 2.703h-.101l-.238-2.326H8.193c.069 1.504.136 3.249.136 5.335z"/></g></g></svg>