<svg xmlns="http://www.w3.org/2000/svg" width="25" height="17" viewBox="0 0 25 17"><g><g><path fill="#222" d="M12.935 11.46c0 4.83-4.717 4.672-4.717 4.672H.488V.302h7.73c2.348 0 4.203 1.383 4.203 4.215 0 2.833-2.267 3.013-2.267 3.013 2.987 0 2.782 3.93 2.781 3.93zm-9.04-4.812h4.053c.702 0 1.32-.238 1.32-1.886 0-1.647-1.05-1.647-1.05-1.647H3.895zm5.89 4.613c0-2.195-1.567-2.173-1.567-2.173H3.895v4.23h4.104c.615-.013 1.785-.205 1.785-2.057zm14.613-.06h-7.697c0 2.939 2.615 2.753 2.615 2.753 2.468 0 2.382-1.703 2.382-1.703h2.613c0 4.52-5.082 4.21-5.082 4.21-6.1 0-5.708-6.05-5.708-6.05s-.005-6.08 5.708-6.08c6.013 0 5.17 6.871 5.17 6.87zm-5.11-4.553c-2.294 0-2.614 2.441-2.614 2.441h4.879s.027-2.441-2.265-2.441zm2.873-5.413v1.949h-6.128v-1.95z"/></g></g></svg>