<svg xmlns="http://www.w3.org/2000/svg" width="32" height="32" viewBox="0 0 32 32"><g><g><path fill="#fff" d="M13.217 20.174h4.87v.696c0 .767-.624 1.39-1.391 1.39h-4.87a1.392 1.392 0 0 1-1.391-1.39v-6.262c0-.767.623-1.39 1.391-1.39h5.565c.385 0 .696.31.696.695v.695a.695.695 0 0 1-.696.696h-4.174a.695.695 0 0 0-.695.696v3.478c0 .384.31.696.695.696zm8.348-9.044v6.26c0 .769-.624 1.392-1.391 1.392h-5.565a.695.695 0 0 1-.696-.696V16c0 .384.31.695.696.695h4.174a.695.695 0 0 0 .695-.695V12.52a.695.695 0 0 0-.695-.695h-4.87v-.696c0-.768.623-1.391 1.391-1.391h4.87c.767 0 1.391.623 1.391 1.391zM32 16c0 8.836-7.164 16-16 16S0 24.836 0 16 7.164 0 16 0s16 7.164 16 16zm-2.783 0C29.217 8.7 23.3 2.783 16 2.783 8.7 2.783 2.783 8.7 2.783 16 2.783 23.3 8.7 29.217 16 29.217c7.3 0 13.217-5.917 13.217-13.217z"/></g></g></svg>